<svg width="38" height="38" viewBox="0 0 38 38" fill="none" xmlns="http://www.w3.org/2000/svg">
<circle cx="19.25" cy="18.75" r="18.75" fill="#424242"/>
<circle cx="19.25" cy="19" r="3.5" fill="#D1C4E9"/>
<path fill-rule="evenodd" clip-rule="evenodd" d="M16.1274 15.338C17.034 14.4314 18.2394 13.9268 19.5215 13.9268C20.8036 13.9268 22.009 14.4341 22.9156 15.3407C23.4908 15.9159 23.9017 16.6071 24.1255 17.3786H27.7286V12.5357C27.7286 11.3996 26.8505 10.5214 25.7143 10.5214H13.3715C12.2353 10.5214 11.2715 11.3996 11.2715 12.5357V17.3786H14.9174C15.1412 16.6071 15.5522 15.9132 16.1274 15.338ZM26.3572 14.0871C26.3572 14.3901 26.1116 14.6357 25.8086 14.6357H24.1629C23.86 14.6357 23.6143 14.3901 23.6143 14.0871V12.4414C23.6143 12.1385 23.8599 11.8929 24.1629 11.8929H25.8086C26.1116 11.8929 26.3572 12.1384 26.3572 12.4414V14.0871Z" fill="#D1C4E9"/>
<path fill-rule="evenodd" clip-rule="evenodd" d="M22.9156 22.1262C22.009 23.0328 20.8036 23.5268 19.5215 23.5268C18.2394 23.5268 17.034 23.0355 16.1274 22.1289C15.2225 21.224 14.7235 19.9929 14.7216 18.75H11.2715V24.8786C11.2715 26.0147 12.2353 26.9786 13.3715 26.9786H25.7143C26.8505 26.9786 27.7286 26.0147 27.7286 24.8786V18.75H24.3214C24.3196 19.9929 23.8205 21.2213 22.9156 22.1262Z" fill="#D1C4E9"/>
</svg>
